<svg width="28" height="28" viewBox="0 0 28 28" fill="none" xmlns="http://www.w3.org/2000/svg">
<path d="M13.0588 25.6316H7.50381C6.48988 25.6315 5.50946 25.2805 4.73996 24.6419C3.97046 24.0034 3.46271 23.1195 3.3086 22.1503L1.53288 10.9949C1.47086 10.6049 1.49678 10.2065 1.60887 9.82712C1.72095 9.44769 1.91655 9.09619 2.18225 8.79672C2.44795 8.49725 2.77746 8.25689 3.1482 8.09212C3.51895 7.92734 3.92215 7.84206 4.33016 7.84211H20.3738C20.7819 7.84206 21.1851 7.92734 21.5558 8.09212C21.9265 8.25689 22.2561 8.49725 22.5218 8.79672C22.7875 9.09619 22.9831 9.44769 23.0951 9.82712C23.2072 10.2065 23.2331 10.6049 23.1711 10.9949L22.799 13.3322M18.0105 22.8947H26.5M22.2553 18.7895V27M8.10615 11.9474V5.10526C8.10615 4.01648 8.55336 2.97229 9.3494 2.2024C10.1454 1.43252 11.2251 1 12.3509 1C13.4767 1 14.5563 1.43252 15.3524 2.2024C16.1484 2.97229 16.5956 4.01648 16.5956 5.10526V11.9474" stroke="#currentColor" stroke-width="1.5" stroke-linecap="round" stroke-linejoin="round"/>
</svg>
